<svg width="434" height="60" viewBox="0 0 434 60" fill="none" xmlns="http://www.w3.org/2000/svg">
<path d="M19.766 10.3448H32.4015L52.1306 59.1133H38.4237L35.0985 50.0616H17.1059L13.7808 59.1133H0L19.766 10.3448ZM21.3916 38.867H30.8128L26.1577 25.7882H26.0468L21.3916 38.867Z" fill="#181818"/>
<path d="M55.9083 10.3448H73.864C76.6718 10.3448 79.2704 10.7389 81.6595 11.5271C84.0733 12.3153 86.0068 13.5837 87.46 15.3325C88.9379 17.0813 89.6768 19.4212 89.6768 22.3522C89.6768 24.2241 89.3196 25.9113 88.6053 27.4138C87.9157 28.8916 86.9674 30.1109 85.7605 31.0714C84.5782 32.0074 83.2482 32.6478 81.7704 32.9926C83.1004 33.1897 84.3566 33.5714 85.5388 34.1379C86.7211 34.7044 87.7556 35.4803 88.6423 36.4655C89.5536 37.4261 90.2679 38.633 90.7851 40.0862C91.3024 41.5394 91.561 43.2389 91.561 45.1848C91.561 47.9434 90.9206 50.3695 89.6398 52.4631C88.3837 54.5567 86.561 56.1946 84.1718 57.3769C81.7827 58.5345 78.9009 59.1133 75.5265 59.1133H55.9083V10.3448ZM68.7654 48.9163H72.1275C73.4083 48.9163 74.4797 48.7439 75.3418 48.399C76.2285 48.0542 76.8935 47.5123 77.3369 46.7734C77.7802 46.0345 78.0019 45.0862 78.0019 43.9286C78.0019 42.1552 77.4723 40.9237 76.4132 40.234C75.3541 39.5444 73.8886 39.1995 72.0167 39.1995H68.7654V48.9163ZM68.7654 29.2242H71.8319C72.9157 29.2242 73.827 29.0641 74.5659 28.7439C75.3295 28.399 75.9083 27.8941 76.3024 27.2291C76.7211 26.5394 76.9305 25.6897 76.9305 24.6798C76.9305 23.0049 76.4625 21.8966 75.5265 21.3547C74.5906 20.8128 73.2975 20.5419 71.6472 20.5419H68.7654V29.2242Z" fill="#181818"/>
<path d="M97.9775 10.3448H115.933C118.741 10.3448 121.34 10.7389 123.729 11.5271C126.143 12.3153 128.076 13.5837 129.529 15.3325C131.007 17.0813 131.746 19.4212 131.746 22.3522C131.746 24.2241 131.389 25.9113 130.675 27.4138C129.985 28.8916 129.037 30.1109 127.83 31.0714C126.647 32.0074 125.317 32.6478 123.84 32.9926C125.17 33.1897 126.426 33.5714 127.608 34.1379C128.79 34.7044 129.825 35.4803 130.711 36.4655C131.623 37.4261 132.337 38.633 132.854 40.0862C133.372 41.5394 133.63 43.2389 133.63 45.1848C133.63 47.9434 132.99 50.3695 131.709 52.4631C130.453 54.5567 128.63 56.1946 126.241 57.3769C123.852 58.5345 120.97 59.1133 117.596 59.1133H97.9775V10.3448ZM110.835 48.9163H114.197C115.477 48.9163 116.549 48.7439 117.411 48.399C118.298 48.0542 118.963 47.5123 119.406 46.7734C119.849 46.0345 120.071 45.0862 120.071 43.9286C120.071 42.1552 119.542 40.9237 118.482 40.234C117.423 39.5444 115.958 39.1995 114.086 39.1995H110.835V48.9163ZM110.835 29.2242H113.901C114.985 29.2242 115.896 29.0641 116.635 28.7439C117.399 28.399 117.977 27.8941 118.372 27.2291C118.79 26.5394 119 25.6897 119 24.6798C119 23.0049 118.532 21.8966 117.596 21.3547C116.66 20.8128 115.367 20.5419 113.716 20.5419H110.835V29.2242Z" fill="#181818"/>
<path d="M155.282 10.3448H167.918L187.647 59.1133H173.94L170.615 50.0616H152.622L149.297 59.1133H135.516L155.282 10.3448ZM156.908 38.867H166.329L161.674 25.7882H161.563L156.908 38.867Z" fill="#181818"/>
<path d="M209.787 9.45813C212.865 9.45813 215.587 9.80296 217.952 10.4926C220.341 11.1576 222.262 11.8719 223.715 12.6355C225.168 13.3744 226.055 13.867 226.375 14.1133L220.242 24.4581C219.848 24.1379 219.171 23.7069 218.21 23.165C217.25 22.6232 216.141 22.1429 214.885 21.7241C213.654 21.2808 212.422 21.0591 211.19 21.0591C209.614 21.0591 208.321 21.3177 207.311 21.835C206.326 22.3276 205.833 23.1035 205.833 24.1626C205.833 24.9015 206.104 25.5665 206.646 26.1576C207.188 26.7488 208.05 27.3399 209.232 27.931C210.439 28.5222 212.028 29.1626 213.998 29.8522C215.846 30.4926 217.557 31.2685 219.134 32.1798C220.735 33.0911 222.126 34.1749 223.309 35.4311C224.491 36.6872 225.415 38.1281 226.08 39.7537C226.769 41.3793 227.114 43.2143 227.114 45.2586C227.114 47.8695 226.572 50.1109 225.489 51.9828C224.429 53.8301 222.988 55.3449 221.166 56.5271C219.368 57.7094 217.336 58.5838 215.07 59.1503C212.804 59.7168 210.488 60 208.124 60C204.626 60 201.498 59.6183 198.74 58.8547C196.006 58.0665 193.789 57.2168 192.089 56.3054C190.415 55.3941 189.405 54.766 189.06 54.4212L195.378 43.67C195.649 43.8916 196.227 44.2488 197.114 44.7414C198.001 45.234 199.06 45.7513 200.291 46.2931C201.548 46.835 202.865 47.2907 204.245 47.6601C205.624 48.0296 206.929 48.2143 208.161 48.2143C210.033 48.2143 211.424 47.9064 212.336 47.2907C213.247 46.6503 213.703 45.7759 213.703 44.6675C213.703 43.8547 213.42 43.1281 212.853 42.4877C212.287 41.8227 211.363 41.17 210.082 40.5296C208.801 39.8646 207.089 39.1256 204.947 38.3128C202.828 37.5 200.833 36.4902 198.961 35.2833C197.114 34.0517 195.599 32.4754 194.417 30.5542C193.259 28.633 192.681 26.2439 192.681 23.3867C192.681 20.5049 193.481 18.0296 195.082 15.9606C196.708 13.867 198.826 12.266 201.437 11.1576C204.048 10.0246 206.831 9.45813 209.787 9.45813Z" fill="#181818"/>
<path d="M253.697 23.165H266.554V59.1133H253.697V23.165Z" fill="#181818"/>
<path d="M274.769 10.3448H287.626V47.9187H304.769V59.1133H274.769V10.3448Z" fill="#181818"/>
<path d="M317.627 41.5641L300.632 10.3448H316.26L324.019 26.9335L331.815 10.3448H347.369L330.485 41.5641V59.1133H317.627V41.5641Z" fill="#181818"/>
<path d="M361.659 10.3448H374.295L394.024 59.1133H380.317L376.992 50.0616H358.999L355.674 59.1133H341.893L361.659 10.3448ZM363.285 38.867H372.706L368.051 25.7882H367.94L363.285 38.867Z" fill="#181818"/>
<path d="M416.164 9.45813C419.242 9.45813 421.964 9.80296 424.329 10.4926C426.718 11.1576 428.639 11.8719 430.092 12.6355C431.545 13.3744 432.432 13.867 432.752 14.1133L426.619 24.4581C426.225 24.1379 425.548 23.7069 424.587 23.165C423.627 22.6232 422.518 22.1429 421.262 21.7241C420.031 21.2808 418.799 21.0591 417.568 21.0591C415.991 21.0591 414.698 21.3177 413.688 21.835C412.703 22.3276 412.21 23.1035 412.21 24.1626C412.21 24.9015 412.481 25.5665 413.023 26.1576C413.565 26.7488 414.427 27.3399 415.609 27.931C416.816 28.5222 418.405 29.1626 420.375 29.8522C422.223 30.4926 423.935 31.2685 425.511 32.1798C427.112 33.0911 428.504 34.1749 429.686 35.4311C430.868 36.6872 431.792 38.1281 432.457 39.7537C433.146 41.3793 433.491 43.2143 433.491 45.2586C433.491 47.8695 432.949 50.1109 431.866 51.9828C430.806 53.8301 429.366 55.3449 427.543 56.5271C425.745 57.7094 423.713 58.5838 421.447 59.1503C419.181 59.7168 416.866 60 414.501 60C411.004 60 407.875 59.6183 405.117 58.8547C402.383 58.0665 400.166 57.2168 398.467 56.3054C396.792 55.3941 395.782 54.766 395.437 54.4212L401.755 43.67C402.026 43.8916 402.605 44.2488 403.491 44.7414C404.378 45.234 405.437 45.7513 406.669 46.2931C407.925 46.835 409.242 47.2907 410.622 47.6601C412.001 48.0296 413.306 48.2143 414.538 48.2143C416.41 48.2143 417.802 47.9064 418.713 47.2907C419.624 46.6503 420.08 45.7759 420.08 44.6675C420.08 43.8547 419.797 43.1281 419.23 42.4877C418.664 41.8227 417.74 41.17 416.459 40.5296C415.178 39.8646 413.467 39.1256 411.324 38.3128C409.205 37.5 407.21 36.4902 405.339 35.2833C403.491 34.0517 401.976 32.4754 400.794 30.5542C399.637 28.633 399.058 26.2439 399.058 23.3867C399.058 20.5049 399.858 18.0296 401.459 15.9606C403.085 13.867 405.203 12.266 407.814 11.1576C410.425 10.0246 413.208 9.45813 416.164 9.45813Z" fill="#181818"/>
<circle cx="259.963" cy="9.85222" r="9.85222" fill="url(#paint0_linear_706_20)"/>
<defs>
<linearGradient id="paint0_linear_706_20" x1="250.11" y1="0" x2="270.861" y2="20.6199" gradientUnits="userSpaceOnUse">
<stop stop-color="#2269FC"/>
<stop offset="1" stop-color="#04C0D9"/>
</linearGradient>
</defs>
</svg>
