<svg width="250" height="60" viewBox="0 0 250 60" fill="none" xmlns="http://www.w3.org/2000/svg">
<path d="M0 6.85407H13.6999V59.051H0V6.85407Z" fill="#181818"/>
<path d="M22.2175 6.85407H39.1455C44.6833 6.85407 49.2761 7.97445 52.9242 10.2152C56.5985 12.4296 59.3543 15.5008 61.1914 19.4288C63.0286 23.3567 63.9471 27.8514 63.9471 32.913C63.9471 38.0008 63.0286 42.5088 61.1914 46.4367C59.3543 50.3647 56.5985 53.449 52.9242 55.6898C49.2761 57.9306 44.6833 59.051 39.1455 59.051H22.2175V6.85407ZM35.9174 18.9938V46.9112H37.9252C40.4447 46.9112 42.5443 46.3049 44.224 45.0922C45.9299 43.8532 47.2159 42.1792 48.082 40.0703C48.9743 37.9613 49.4205 35.6019 49.4205 32.992C49.4205 30.3558 48.9874 27.9833 48.1214 25.8743C47.2553 23.7653 45.9693 22.0913 44.2633 20.8523C42.5574 19.6133 40.4447 18.9938 37.9252 18.9938H35.9174Z" fill="#181818"/>
<path d="M69.8763 6.85407H92.2371C95.334 6.85407 98.0766 7.51312 100.465 8.83122C102.853 10.123 104.73 11.9815 106.094 14.4068C107.485 16.8321 108.181 19.7188 108.181 23.0667C108.181 26.3884 107.617 29.0905 106.488 31.1731C105.36 33.2557 104.008 34.811 102.433 35.8392C100.859 36.8673 99.4151 37.5131 98.1028 37.7768L110.622 59.051H95.229L84.2848 38.8444H83.6156V59.051H69.8763V6.85407ZM83.6156 29.4332H87.3161C89.022 29.4332 90.5705 29.0246 91.9615 28.2073C93.3787 27.3901 94.0873 25.8216 94.0873 23.5017C94.0873 21.2082 93.3919 19.6528 92.0009 18.8356C90.6361 18.0184 89.1139 17.6098 87.4342 17.6098H83.6156V29.4332Z" fill="#181818"/>
<path d="M118.257 23.5017H131.957V59.051H118.257V23.5017Z" fill="#181818"/>
<path d="M160.276 5.90503C163.557 5.90503 166.457 6.2741 168.976 7.01224C171.522 7.72401 173.569 8.48851 175.118 9.30574C176.666 10.0966 177.611 10.6238 177.952 10.8875L171.417 21.9595C170.997 21.6168 170.275 21.1555 169.252 20.5755C168.228 19.9956 167.047 19.4815 165.709 19.0333C164.396 18.5588 163.084 18.3216 161.772 18.3216C160.092 18.3216 158.714 18.5984 157.638 19.152C156.589 19.6792 156.064 20.5096 156.064 21.6432C156.064 22.434 156.352 23.1458 156.93 23.7785C157.507 24.4112 158.426 25.0439 159.685 25.6766C160.971 26.3093 162.664 26.9947 164.764 27.7328C166.732 28.4182 168.556 29.2486 170.236 30.224C171.942 31.1994 173.425 32.3594 174.685 33.7038C175.944 35.0483 176.928 36.5905 177.637 38.3304C178.372 40.0703 178.739 42.0342 178.739 44.2223C178.739 47.0167 178.162 49.4156 177.007 51.4191C175.879 53.3963 174.343 55.0176 172.401 56.2829C170.485 57.5483 168.32 58.4842 165.906 59.0905C163.491 59.6968 161.024 60 158.504 60C154.778 60 151.445 59.5914 148.505 58.7741C145.592 57.9306 143.23 57.0211 141.419 56.0457C139.634 55.0703 138.558 54.398 138.191 54.029L144.923 42.5219C145.211 42.7592 145.828 43.1414 146.773 43.6687C147.718 44.1959 148.846 44.7495 150.158 45.3295C151.497 45.9095 152.901 46.3972 154.371 46.7926C155.841 47.188 157.232 47.3857 158.544 47.3857C160.538 47.3857 162.021 47.0562 162.992 46.3972C163.963 45.7117 164.449 44.7759 164.449 43.5896C164.449 42.7197 164.147 41.942 163.543 41.2566C162.94 40.5448 161.956 39.8462 160.591 39.1608C159.226 38.449 157.402 37.6581 155.119 36.7882C152.862 35.9182 150.736 34.8374 148.741 33.5457C146.773 32.2275 145.159 30.5404 143.899 28.4841C142.666 26.4279 142.049 23.8708 142.049 20.8128C142.049 17.7284 142.902 15.079 144.608 12.8646C146.34 10.6238 148.597 8.91031 151.379 7.72401C154.161 6.51136 157.127 5.90503 160.276 5.90503Z" fill="#181818"/>
<path d="M235.645 38.884H220.371V59.051H206.671V6.85407H220.371V26.9024H235.645V6.85407H249.266V59.051H235.645V38.884Z" fill="#181818"/>
<ellipse cx="124.847" cy="10.5448" rx="10.498" ry="10.5448" fill="url(#paint0_linear_706_23)"/>
<defs>
<linearGradient id="paint0_linear_706_23" x1="114.349" y1="0" x2="136.557" y2="21.9707" gradientUnits="userSpaceOnUse">
<stop stop-color="#2269FC"/>
<stop offset="1" stop-color="#04C0D9"/>
</linearGradient>
</defs>
</svg>
