<svg width="858" height="228" viewBox="0 0 858 228" fill="none" xmlns="http://www.w3.org/2000/svg">
<rect x="59.9922" y="100.341" width="159.271" height="26.5452" fill="#181818"/>
<rect x="59.9922" y="126.886" width="93.4389" height="53.0903" transform="rotate(-90 59.9922 126.886)" fill="#181818"/>
<rect x="166.173" y="193.78" width="93.4389" height="53.0903" transform="rotate(-90 166.173 193.78)" fill="#181818"/>
<rect x="120.514" y="66.8938" width="159.271" height="26.5452" fill="#181818"/>
<rect x="120.514" y="93.439" width="93.4389" height="53.0903" transform="rotate(-90 120.514 93.439)" fill="#181818"/>
<rect x="226.694" y="160.333" width="93.4389" height="53.0903" transform="rotate(-90 226.694 160.333)" fill="#181818"/>
<rect x="226.429" width="53.0903" height="53.0903" fill="#181818"/>
<rect x="173.605" width="53.0903" height="26.5452" fill="#181818"/>
<rect y="133.788" width="159.271" height="26.5452" fill="#181818"/>
<rect y="160.333" width="93.4389" height="53.0903" transform="rotate(-90 0 160.333)" fill="#181818"/>
<rect x="106.182" y="227.227" width="93.4389" height="53.0903" transform="rotate(-90 106.182 227.227)" fill="#181818"/>
<rect x="53.0908" y="227.227" width="53.0903" height="53.0903" transform="rotate(180 53.0908 227.227)" fill="#181818"/>
<rect x="106.182" y="227.227" width="53.0903" height="26.5452" transform="rotate(180 106.182 227.227)" fill="#181818"/>
<circle cx="844.289" cy="213.264" r="13.5358" fill="url(#paint0_linear_706_69)"/>
<path d="M329.127 0C333.405 0 337.198 0.467903 340.507 1.40371C343.849 2.3061 346.54 3.27533 348.578 4.3114C350.651 5.34747 351.921 6.04932 352.388 6.41696L343.214 21.958C342.679 21.557 341.744 21.0055 340.407 20.3037C339.103 19.5684 337.633 18.9167 335.995 18.3485C334.357 17.7803 332.787 17.4962 331.283 17.4962C329.511 17.4962 328.041 17.7469 326.871 18.2482C325.701 18.7161 325.116 19.535 325.116 20.7047C325.116 21.5068 325.434 22.2421 326.069 22.9106C326.704 23.579 327.773 24.2641 329.277 24.966C330.815 25.6678 332.904 26.47 335.544 27.3724C338.117 28.2079 340.474 29.244 342.613 30.4806C344.752 31.7172 346.59 33.1877 348.127 34.8922C349.698 36.5967 350.918 38.5519 351.787 40.7577C352.656 42.9636 353.09 45.4535 353.09 48.2275C353.09 51.9039 352.322 55.0455 350.784 57.6524C349.28 60.2259 347.258 62.3147 344.718 63.919C342.178 65.5232 339.337 66.693 336.196 67.4282C333.087 68.1969 329.929 68.5813 326.721 68.5813C321.808 68.5813 317.429 68.0465 313.586 66.977C309.776 65.9075 306.684 64.7545 304.311 63.5179C301.972 62.2479 300.535 61.3455 300 60.8107L309.475 44.6179C309.843 44.9187 310.628 45.4033 311.831 46.0718C313.068 46.7402 314.538 47.4421 316.243 48.1773C317.981 48.9126 319.769 49.5476 321.607 50.0824C323.445 50.5837 325.15 50.8344 326.721 50.8344C328.826 50.8344 330.38 50.5336 331.383 49.932C332.386 49.3304 332.887 48.4614 332.887 47.3251C332.887 46.523 332.569 45.771 331.934 45.0691C331.333 44.3673 330.23 43.632 328.626 42.8633C327.055 42.0612 324.816 41.1421 321.908 40.106C319.1 39.0699 316.427 37.7164 313.887 36.0453C311.347 34.3742 309.275 32.2018 307.67 29.528C306.066 26.8543 305.264 23.5121 305.264 19.5015C305.264 15.4241 306.4 11.9315 308.673 9.02386C310.946 6.11617 313.903 3.89363 317.546 2.35623C321.189 0.78541 325.05 0 329.127 0Z" fill="#181818"/>
<path d="M383.276 1.20318H402.276L429.548 67.3781H408.843L404.632 55.8977H381.02L376.758 67.3781H356.003L383.276 1.20318ZM387.537 39.0532H398.115L392.901 24.4647H392.751L387.537 39.0532Z" fill="#181818"/>
<path d="M433.968 1.20318H453.369V67.3781H433.968V1.20318Z" fill="#181818"/>
<path d="M463.937 1.20318H504.795V18.0477H483.389V25.8182H503.041V42.6126H483.389V67.3781H463.937V1.20318Z" fill="#181818"/>
<path d="M513.074 1.20318H557.492V18.0477H532.475V26.0689H557.492V42.362H532.475V50.5336H557.492V67.3781H513.074V1.20318Z" fill="#181818"/>
<path d="M567.319 1.20318H611.736V18.0477H586.72V26.0689H611.736V42.362H586.72V50.5336H611.736V67.3781H567.319V1.20318Z" fill="#181818"/>
<path d="M329.127 79.2094C333.405 79.2094 337.198 79.6773 340.507 80.6131C343.849 81.5155 346.54 82.4847 348.578 83.5208C350.651 84.5568 351.921 85.2587 352.388 85.6263L343.214 101.167C342.679 100.766 341.744 100.215 340.407 99.513C339.103 98.7778 337.633 98.126 335.995 97.5579C334.357 96.9897 332.787 96.7056 331.283 96.7056C329.511 96.7056 328.041 96.9563 326.871 97.4576C325.701 97.9255 325.116 98.7443 325.116 99.9141C325.116 100.716 325.434 101.451 326.069 102.12C326.704 102.788 327.773 103.473 329.277 104.175C330.815 104.877 332.904 105.679 335.544 106.582C338.117 107.417 340.474 108.453 342.613 109.69C344.752 110.927 346.59 112.397 348.127 114.102C349.698 115.806 350.918 117.761 351.787 119.967C352.656 122.173 353.09 124.663 353.09 127.437C353.09 131.113 352.322 134.255 350.784 136.862C349.28 139.435 347.258 141.524 344.718 143.128C342.178 144.733 339.337 145.902 336.196 146.638C333.087 147.406 329.929 147.791 326.721 147.791C321.808 147.791 317.429 147.256 313.586 146.186C309.776 145.117 306.684 143.964 304.311 142.727C301.972 141.457 300.535 140.555 300 140.02L309.475 123.827C309.843 124.128 310.628 124.613 311.831 125.281C313.068 125.95 314.538 126.651 316.243 127.387C317.981 128.122 319.769 128.757 321.607 129.292C323.445 129.793 325.15 130.044 326.721 130.044C328.826 130.044 330.38 129.743 331.383 129.141C332.386 128.54 332.887 127.671 332.887 126.534C332.887 125.732 332.569 124.98 331.934 124.278C331.333 123.577 330.23 122.841 328.626 122.073C327.055 121.271 324.816 120.351 321.908 119.315C319.1 118.279 316.427 116.926 313.887 115.255C311.347 113.584 309.275 111.411 307.67 108.737C306.066 106.064 305.264 102.722 305.264 98.7109C305.264 94.6335 306.4 91.1409 308.673 88.2332C310.946 85.3255 313.903 83.103 317.546 81.5656C321.189 79.9948 325.05 79.2094 329.127 79.2094Z" fill="#181818"/>
<path d="M379.766 113.45C379.766 116.424 380.368 119.148 381.571 121.621C382.774 124.061 384.462 126.016 386.634 127.487C388.807 128.924 391.347 129.643 394.255 129.643C397.196 129.643 399.752 128.924 401.925 127.487C404.097 126.016 405.785 124.061 406.988 121.621C408.191 119.148 408.793 116.424 408.793 113.45C408.793 110.475 408.191 107.768 406.988 105.328C405.785 102.889 404.097 100.933 401.925 99.4629C399.752 97.9923 397.196 97.2571 394.255 97.2571C391.347 97.2571 388.807 97.9923 386.634 99.4629C384.462 100.933 382.774 102.889 381.571 105.328C380.368 107.768 379.766 110.475 379.766 113.45ZM359.513 113.45C359.513 108.637 360.382 104.159 362.12 100.014C363.891 95.8367 366.348 92.1937 369.489 89.0855C372.631 85.9773 376.307 83.5542 380.518 81.8163C384.763 80.0783 389.342 79.2094 394.255 79.2094C399.268 79.2094 403.88 80.0783 408.091 81.8163C412.336 83.5542 416.012 85.9773 419.12 89.0855C422.262 92.1937 424.685 95.8367 426.39 100.014C428.127 104.159 428.996 108.637 428.996 113.45C428.996 118.296 428.161 122.808 426.49 126.986C424.819 131.13 422.429 134.773 419.321 137.915C416.246 141.023 412.586 143.446 408.342 145.184C404.097 146.922 399.402 147.791 394.255 147.791C388.974 147.791 384.195 146.922 379.917 145.184C375.672 143.446 372.029 141.023 368.988 137.915C365.946 134.773 363.607 131.13 361.969 126.986C360.332 122.808 359.513 118.296 359.513 113.45Z" fill="#181818"/>
<path d="M437.304 80.4125H478.162V97.2571H456.756V105.028H476.408V121.822H456.756V146.587H437.304V80.4125Z" fill="#181818"/>
<path d="M497.821 97.2571H483.534V80.4125H531.51V97.2571H517.223V146.587H497.821V97.2571Z" fill="#181818"/>
<path d="M613.127 146.587H590.116L580.892 107.384H584.251L574.976 146.587H551.865L535.923 80.4125H558.282L564.799 120.92H564.548L575.678 80.4125H589.414L600.544 120.92H600.293L606.81 80.4125H629.169L613.127 146.587Z" fill="#181818"/>
<path d="M651.954 80.4125H670.955L698.227 146.587H677.522L673.311 135.107H649.699L645.437 146.587H624.682L651.954 80.4125ZM656.216 118.263H666.794L661.58 103.674H661.43L656.216 118.263Z" fill="#181818"/>
<path d="M701.745 80.4125H731.423C735.434 80.4125 738.976 81.2648 742.051 82.9693C745.126 84.6404 747.532 87.0467 749.27 90.1884C751.008 93.2966 751.877 96.9897 751.877 101.268C751.877 105.512 751.175 108.955 749.772 111.595C748.401 114.202 746.747 116.157 744.809 117.46C742.87 118.764 741.082 119.599 739.444 119.967L755.286 146.587H733.529L719.893 121.471H721.196V146.587H701.745V80.4125ZM721.196 108.336H724.405C726.176 108.336 727.864 107.919 729.468 107.083C731.106 106.247 731.924 104.526 731.924 101.919C731.924 99.3125 731.139 97.5913 729.568 96.7557C727.997 95.9202 726.326 95.5024 724.555 95.5024H721.196V108.336Z" fill="#181818"/>
<path d="M764.128 80.4125H808.546V97.2571H783.53V105.278H808.546V121.571H783.53V129.743H808.546V146.587H764.128V80.4125Z" fill="#181818"/>
<path d="M329.127 158.419C333.405 158.419 337.198 158.887 340.507 159.822C343.849 160.725 346.54 161.694 348.578 162.73C350.651 163.766 351.921 164.468 352.388 164.836L343.214 180.377C342.679 179.976 341.744 179.424 340.407 178.722C339.103 177.987 337.633 177.335 335.995 176.767C334.357 176.199 332.787 175.915 331.283 175.915C329.511 175.915 328.041 176.166 326.871 176.667C325.701 177.135 325.116 177.954 325.116 179.123C325.116 179.926 325.434 180.661 326.069 181.329C326.704 181.998 327.773 182.683 329.277 183.385C330.815 184.087 332.904 184.889 335.544 185.791C338.117 186.627 340.474 187.663 342.613 188.899C344.752 190.136 346.59 191.606 348.127 193.311C349.698 195.015 350.918 196.971 351.787 199.176C352.656 201.382 353.09 203.872 353.09 206.646C353.09 210.323 352.322 213.464 350.784 216.071C349.28 218.645 347.258 220.733 344.718 222.338C342.178 223.942 339.337 225.112 336.196 225.847C333.087 226.616 329.929 227 326.721 227C321.808 227 317.429 226.465 313.586 225.396C309.776 224.326 306.684 223.173 304.311 221.937C301.972 220.667 300.535 219.764 300 219.229L309.475 203.037C309.843 203.337 310.628 203.822 311.831 204.49C313.068 205.159 314.538 205.861 316.243 206.596C317.981 207.331 319.769 207.966 321.607 208.501C323.445 209.002 325.15 209.253 326.721 209.253C328.826 209.253 330.38 208.952 331.383 208.351C332.386 207.749 332.887 206.88 332.887 205.744C332.887 204.942 332.569 204.19 331.934 203.488C331.333 202.786 330.23 202.051 328.626 201.282C327.055 200.48 324.816 199.561 321.908 198.525C319.1 197.489 316.427 196.135 313.887 194.464C311.347 192.793 309.275 190.621 307.67 187.947C306.066 185.273 305.264 181.931 305.264 177.92C305.264 173.843 306.4 170.35 308.673 167.443C310.946 164.535 313.903 162.312 317.546 160.775C321.189 159.204 325.05 158.419 329.127 158.419Z" fill="#181818"/>
<path d="M379.766 192.659C379.766 195.634 380.368 198.358 381.571 200.831C382.774 203.271 384.462 205.226 386.634 206.696C388.807 208.133 391.347 208.852 394.255 208.852C397.196 208.852 399.752 208.133 401.925 206.696C404.097 205.226 405.785 203.271 406.988 200.831C408.191 198.358 408.793 195.634 408.793 192.659C408.793 189.685 408.191 186.978 406.988 184.538C405.785 182.098 404.097 180.143 401.925 178.672C399.752 177.202 397.196 176.466 394.255 176.466C391.347 176.466 388.807 177.202 386.634 178.672C384.462 180.143 382.774 182.098 381.571 184.538C380.368 186.978 379.766 189.685 379.766 192.659ZM359.513 192.659C359.513 187.847 360.382 183.368 362.12 179.224C363.891 175.046 366.348 171.403 369.489 168.295C372.631 165.187 376.307 162.764 380.518 161.026C384.763 159.288 389.342 158.419 394.255 158.419C399.268 158.419 403.88 159.288 408.091 161.026C412.336 162.764 416.012 165.187 419.12 168.295C422.262 171.403 424.685 175.046 426.39 179.224C428.127 183.368 428.996 187.847 428.996 192.659C428.996 197.505 428.161 202.017 426.49 206.195C424.819 210.339 422.429 213.982 419.321 217.124C416.246 220.232 412.586 222.655 408.342 224.393C404.097 226.131 399.402 227 394.255 227C388.974 227 384.195 226.131 379.917 224.393C375.672 222.655 372.029 220.232 368.988 217.124C365.946 213.982 363.607 210.339 361.969 206.195C360.332 202.017 359.513 197.505 359.513 192.659Z" fill="#181818"/>
<path d="M437.304 159.622H456.756V208.952H479.365V225.797H437.304V159.622Z" fill="#181818"/>
<path d="M522.341 159.622H541.742V199.979C541.742 205.426 540.689 210.172 538.584 214.216C536.478 218.26 533.37 221.402 529.259 223.641C525.182 225.88 520.152 227 514.169 227C508.187 227 503.123 225.88 498.979 223.641C494.868 221.402 491.76 218.26 489.654 214.216C487.549 210.172 486.496 205.426 486.496 199.979V159.622H505.897V198.926C505.897 201.366 506.198 203.371 506.8 204.942C507.401 206.479 508.304 207.615 509.507 208.351C510.743 209.086 512.298 209.454 514.169 209.454C516.007 209.454 517.528 209.086 518.731 208.351C519.934 207.615 520.837 206.479 521.438 204.942C522.04 203.371 522.341 201.366 522.341 198.926V159.622Z" fill="#181818"/>
<path d="M562.543 176.466H548.255V159.622H596.232V176.466H581.944V225.797H562.543V176.466Z" fill="#181818"/>
<path d="M608.766 180.176H628.167V225.797H608.766V180.176Z" fill="#181818"/>
<path d="M656.983 192.659C656.983 195.634 657.585 198.358 658.788 200.831C659.991 203.271 661.679 205.226 663.852 206.696C666.024 208.133 668.564 208.852 671.472 208.852C674.413 208.852 676.97 208.133 679.142 206.696C681.314 205.226 683.002 203.271 684.205 200.831C685.409 198.358 686.01 195.634 686.01 192.659C686.01 189.685 685.409 186.978 684.205 184.538C683.002 182.098 681.314 180.143 679.142 178.672C676.97 177.202 674.413 176.466 671.472 176.466C668.564 176.466 666.024 177.202 663.852 178.672C661.679 180.143 659.991 182.098 658.788 184.538C657.585 186.978 656.983 189.685 656.983 192.659ZM636.73 192.659C636.73 187.847 637.599 183.368 639.337 179.224C641.108 175.046 643.565 171.403 646.706 168.295C649.848 165.187 653.524 162.764 657.735 161.026C661.98 159.288 666.559 158.419 671.472 158.419C676.485 158.419 681.097 159.288 685.308 161.026C689.553 162.764 693.229 165.187 696.337 168.295C699.479 171.403 701.902 175.046 703.607 179.224C705.345 183.368 706.214 187.847 706.214 192.659C706.214 197.505 705.378 202.017 703.707 206.195C702.036 210.339 699.646 213.982 696.538 217.124C693.463 220.232 689.803 222.655 685.559 224.393C681.314 226.131 676.619 227 671.472 227C666.191 227 661.412 226.131 657.134 224.393C652.889 222.655 649.246 220.232 646.205 217.124C643.164 213.982 640.824 210.339 639.186 206.195C637.549 202.017 636.73 197.505 636.73 192.659Z" fill="#181818"/>
<path d="M731.767 177.269L733.221 177.519V225.797H713.82V159.622H740.039L761.646 207.749L760.192 208.05V159.622H779.593V225.797H753.224L731.767 177.269Z" fill="#181818"/>
<path d="M815.98 158.419C820.258 158.419 824.052 158.887 827.36 159.822C830.702 160.725 833.393 161.694 835.432 162.73C837.504 163.766 838.774 164.468 839.242 164.836L830.067 180.377C829.533 179.976 828.597 179.424 827.26 178.722C825.957 177.987 824.486 177.335 822.848 176.767C821.211 176.199 819.64 175.915 818.136 175.915C816.365 175.915 814.894 176.166 813.724 176.667C812.554 177.135 811.97 177.954 811.97 179.123C811.97 179.926 812.287 180.661 812.922 181.329C813.557 181.998 814.627 182.683 816.131 183.385C817.668 184.087 819.757 184.889 822.397 185.791C824.971 186.627 827.327 187.663 829.466 188.899C831.605 190.136 833.443 191.606 834.98 193.311C836.551 195.015 837.771 196.971 838.64 199.176C839.509 201.382 839.944 203.872 839.944 206.646C839.944 210.323 839.175 213.464 837.637 216.071C836.134 218.645 834.111 220.733 831.571 222.338C829.031 223.942 826.191 225.112 823.049 225.847C819.941 226.616 816.782 227 813.574 227C808.661 227 804.283 226.465 800.439 225.396C796.629 224.326 793.538 223.173 791.165 221.937C788.825 220.667 787.388 219.764 786.853 219.229L796.328 203.037C796.696 203.337 797.481 203.822 798.684 204.49C799.921 205.159 801.392 205.861 803.096 206.596C804.834 207.331 806.622 207.966 808.46 208.501C810.299 209.002 812.003 209.253 813.574 209.253C815.679 209.253 817.234 208.952 818.236 208.351C819.239 207.749 819.74 206.88 819.74 205.744C819.74 204.942 819.423 204.19 818.788 203.488C818.186 202.786 817.083 202.051 815.479 201.282C813.908 200.48 811.669 199.561 808.761 198.525C805.954 197.489 803.28 196.135 800.74 194.464C798.2 192.793 796.128 190.621 794.523 187.947C792.919 185.273 792.117 181.931 792.117 177.92C792.117 173.843 793.253 170.35 795.526 167.443C797.799 164.535 800.757 162.312 804.4 160.775C808.043 159.204 811.903 158.419 815.98 158.419Z" fill="#181818"/>
<circle cx="618.692" cy="165.136" r="13.5358" fill="url(#paint1_linear_706_69)"/>
<defs>
<linearGradient id="paint0_linear_706_69" x1="830.753" y1="199.728" x2="859.262" y2="228.057" gradientUnits="userSpaceOnUse">
<stop stop-color="#2269FC"/>
<stop offset="1" stop-color="#04C0D9"/>
</linearGradient>
<linearGradient id="paint1_linear_706_69" x1="605.156" y1="151.601" x2="633.665" y2="179.93" gradientUnits="userSpaceOnUse">
<stop stop-color="#2269FC"/>
<stop offset="1" stop-color="#04C0D9"/>
</linearGradient>
</defs>
</svg>
